<svg xmlns="http://www.w3.org/2000/svg" width="396.34" height="352.302" viewBox="0 0 396.34 352.302"><defs><style>.a{fill:#f9bf3b;}</style></defs><path class="a" d="M391.879,302.768c12.7,22.015-3.242,49.534-28.609,49.534H33.065c-25.416,0-41.285-27.561-28.609-49.534L169.561,16.5c12.707-22.025,44.533-21.985,57.217,0l165.1,286.265ZM198.17,243.584a31.652,31.652,0,1,0,31.652,31.652A31.652,31.652,0,0,0,198.17,243.584ZM168.119,129.811l5.1,93.58a8.257,8.257,0,0,0,8.245,7.807h33.4a8.257,8.257,0,0,0,8.245-7.807l5.1-93.58a8.257,8.257,0,0,0-8.245-8.707H176.363a8.257,8.257,0,0,0-8.244,8.707Z" transform="translate(0)"></path></svg>